<mxfile host="app.diagrams.net" agent="Mozilla/5.0 (Windows NT 10.0; Win64; x64) AppleWebKit/537.36 (KHTML, like Gecko) Chrome/133.0.0.0 Safari/537.36 OPR/118.0.0.0" version="27.0.6">
  <diagram name="PÃ¡gina-1" id="n3nzuwro1qH9Sh52DPuT">
    <mxGraphModel grid="1" page="1" gridSize="10" guides="1" tooltips="1" connect="1" arrows="1" fold="1" pageScale="1" pageWidth="9999" pageHeight="9999" math="0" shadow="0">
      <root>
        <mxCell id="0" />
        <mxCell id="1" parent="0" />
        <mxCell id="0YgiuBvHB2j14HiR7saE-1" style="edgeStyle=elbowEdgeStyle;rounded=0;orthogonalLoop=1;jettySize=auto;html=1;elbow=vertical;curved=0;" edge="1" parent="1" target="0YgiuBvHB2j14HiR7saE-4">
          <mxGeometry relative="1" as="geometry">
            <mxPoint x="835" y="590" as="sourcePoint" />
            <mxPoint x="1060" y="590" as="targetPoint" />
          </mxGeometry>
        </mxCell>
        <mxCell id="0YgiuBvHB2j14HiR7saE-2" style="edgeStyle=elbowEdgeStyle;rounded=0;orthogonalLoop=1;jettySize=auto;html=1;elbow=vertical;curved=0;" edge="1" parent="1" target="0YgiuBvHB2j14HiR7saE-6">
          <mxGeometry relative="1" as="geometry">
            <mxPoint x="1024.6304347826085" y="530.0021739130435" as="sourcePoint" />
            <mxPoint x="1300" y="530" as="targetPoint" />
          </mxGeometry>
        </mxCell>
        <mxCell id="0YgiuBvHB2j14HiR7saE-3" value="JanelaSelecaoGrupo" style="shape=umlLifeline;perimeter=lifelinePerimeter;whiteSpace=wrap;html=1;container=0;dropTarget=0;collapsible=0;recursiveResize=0;outlineConnect=0;portConstraint=eastwest;newEdgeStyle={&quot;edgeStyle&quot;:&quot;elbowEdgeStyle&quot;,&quot;elbow&quot;:&quot;vertical&quot;,&quot;curved&quot;:0,&quot;rounded&quot;:0};" vertex="1" parent="1">
          <mxGeometry x="960" y="420" width="130" height="245" as="geometry" />
        </mxCell>
        <mxCell id="0YgiuBvHB2j14HiR7saE-4" value="" style="html=1;points=[];perimeter=orthogonalPerimeter;outlineConnect=0;targetShapes=umlLifeline;portConstraint=eastwest;newEdgeStyle={&quot;edgeStyle&quot;:&quot;elbowEdgeStyle&quot;,&quot;elbow&quot;:&quot;vertical&quot;,&quot;curved&quot;:0,&quot;rounded&quot;:0};" vertex="1" parent="0YgiuBvHB2j14HiR7saE-3">
          <mxGeometry x="60" y="90" width="10" height="120" as="geometry" />
        </mxCell>
        <mxCell id="0YgiuBvHB2j14HiR7saE-20" value="" style="shape=umlDestroy;whiteSpace=wrap;html=1;strokeWidth=3;targetShapes=umlLifeline;" vertex="1" parent="0YgiuBvHB2j14HiR7saE-3">
          <mxGeometry x="50" y="215" width="30" height="30" as="geometry" />
        </mxCell>
        <mxCell id="0YgiuBvHB2j14HiR7saE-5" value=": GrupoController" style="shape=umlLifeline;perimeter=lifelinePerimeter;whiteSpace=wrap;html=1;container=0;dropTarget=0;collapsible=0;recursiveResize=0;outlineConnect=0;portConstraint=eastwest;newEdgeStyle={&quot;edgeStyle&quot;:&quot;elbowEdgeStyle&quot;,&quot;elbow&quot;:&quot;vertical&quot;,&quot;curved&quot;:0,&quot;rounded&quot;:0};" vertex="1" parent="1">
          <mxGeometry x="1150" y="420" width="110" height="380" as="geometry" />
        </mxCell>
        <mxCell id="0YgiuBvHB2j14HiR7saE-6" value="" style="html=1;points=[];perimeter=orthogonalPerimeter;outlineConnect=0;targetShapes=umlLifeline;portConstraint=eastwest;newEdgeStyle={&quot;edgeStyle&quot;:&quot;elbowEdgeStyle&quot;,&quot;elbow&quot;:&quot;vertical&quot;,&quot;curved&quot;:0,&quot;rounded&quot;:0};" vertex="1" parent="0YgiuBvHB2j14HiR7saE-5">
          <mxGeometry x="50" y="110" width="10" height="100" as="geometry" />
        </mxCell>
        <mxCell id="0YgiuBvHB2j14HiR7saE-7" style="edgeStyle=orthogonalEdgeStyle;rounded=0;orthogonalLoop=1;jettySize=auto;html=1;curved=0;" edge="1" parent="1" source="0YgiuBvHB2j14HiR7saE-10">
          <mxGeometry relative="1" as="geometry">
            <mxPoint x="840" y="500.0000000000002" as="sourcePoint" />
            <mxPoint x="1020" y="510" as="targetPoint" />
            <Array as="points">
              <mxPoint x="870" y="510" />
              <mxPoint x="870" y="510" />
            </Array>
          </mxGeometry>
        </mxCell>
        <mxCell id="0YgiuBvHB2j14HiR7saE-8" value="1: abrirListaGrupos()" style="text;whiteSpace=wrap;html=1;" vertex="1" parent="1">
          <mxGeometry x="855" y="490" width="140" height="40" as="geometry" />
        </mxCell>
        <mxCell id="0YgiuBvHB2j14HiR7saE-9" value="Menu" style="shape=umlLifeline;perimeter=lifelinePerimeter;whiteSpace=wrap;html=1;container=0;dropTarget=0;collapsible=0;recursiveResize=0;outlineConnect=0;portConstraint=eastwest;newEdgeStyle={&quot;edgeStyle&quot;:&quot;elbowEdgeStyle&quot;,&quot;elbow&quot;:&quot;vertical&quot;,&quot;curved&quot;:0,&quot;rounded&quot;:0};" vertex="1" parent="1">
          <mxGeometry x="780" y="420" width="100" height="380" as="geometry" />
        </mxCell>
        <mxCell id="0YgiuBvHB2j14HiR7saE-10" value="" style="html=1;points=[];perimeter=orthogonalPerimeter;outlineConnect=0;targetShapes=umlLifeline;portConstraint=eastwest;newEdgeStyle={&quot;edgeStyle&quot;:&quot;elbowEdgeStyle&quot;,&quot;elbow&quot;:&quot;vertical&quot;,&quot;curved&quot;:0,&quot;rounded&quot;:0};" vertex="1" parent="0YgiuBvHB2j14HiR7saE-9">
          <mxGeometry x="45" y="70" width="10" height="160" as="geometry" />
        </mxCell>
        <mxCell id="0YgiuBvHB2j14HiR7saE-11" value="2:listarGrupos()" style="text;whiteSpace=wrap;html=1;" vertex="1" parent="1">
          <mxGeometry x="1070" y="510" width="120" height="40" as="geometry" />
        </mxCell>
        <mxCell id="0YgiuBvHB2j14HiR7saE-12" value="" style="html=1;verticalAlign=bottom;endArrow=open;dashed=1;endSize=8;curved=0;rounded=0;" edge="1" parent="1" source="0YgiuBvHB2j14HiR7saE-32">
          <mxGeometry relative="1" as="geometry">
            <mxPoint x="1960" y="570" as="sourcePoint" />
            <mxPoint x="1210" y="570" as="targetPoint" />
          </mxGeometry>
        </mxCell>
        <mxCell id="0YgiuBvHB2j14HiR7saE-13" value="3 : clicaGrupo(grupo)" style="text;whiteSpace=wrap;html=1;" vertex="1" parent="1">
          <mxGeometry x="855" y="570" width="140" height="40" as="geometry" />
        </mxCell>
        <mxCell id="0YgiuBvHB2j14HiR7saE-14" style="edgeStyle=elbowEdgeStyle;rounded=0;orthogonalLoop=1;jettySize=auto;html=1;elbow=horizontal;curved=0;" edge="1" parent="1" target="0YgiuBvHB2j14HiR7saE-6">
          <mxGeometry relative="1" as="geometry">
            <mxPoint x="1030" y="620" as="sourcePoint" />
            <mxPoint x="1295" y="620.0042857142862" as="targetPoint" />
            <Array as="points">
              <mxPoint x="1050" y="620" />
            </Array>
          </mxGeometry>
        </mxCell>
        <mxCell id="0YgiuBvHB2j14HiR7saE-15" value="4: grupoSelecionado(grupo)" style="text;whiteSpace=wrap;html=1;" vertex="1" parent="1">
          <mxGeometry x="1040" y="600" width="180" height="30" as="geometry" />
        </mxCell>
        <mxCell id="0YgiuBvHB2j14HiR7saE-16" value="PersonagemController" style="shape=umlLifeline;perimeter=lifelinePerimeter;whiteSpace=wrap;html=1;container=0;dropTarget=0;collapsible=0;recursiveResize=0;outlineConnect=0;portConstraint=eastwest;newEdgeStyle={&quot;edgeStyle&quot;:&quot;elbowEdgeStyle&quot;,&quot;elbow&quot;:&quot;vertical&quot;,&quot;curved&quot;:0,&quot;rounded&quot;:0};" vertex="1" parent="1">
          <mxGeometry x="1710" y="420" width="130" height="380" as="geometry" />
        </mxCell>
        <mxCell id="0YgiuBvHB2j14HiR7saE-18" style="edgeStyle=elbowEdgeStyle;rounded=0;orthogonalLoop=1;jettySize=auto;html=1;elbow=horizontal;curved=0;" edge="1" parent="1" source="0YgiuBvHB2j14HiR7saE-6" target="0YgiuBvHB2j14HiR7saE-24">
          <mxGeometry relative="1" as="geometry">
            <mxPoint x="1220" y="630" as="sourcePoint" />
            <mxPoint x="1459.5" y="630.004347826087" as="targetPoint" />
            <Array as="points">
              <mxPoint x="1220" y="630" />
            </Array>
          </mxGeometry>
        </mxCell>
        <mxCell id="0YgiuBvHB2j14HiR7saE-21" style="edgeStyle=elbowEdgeStyle;rounded=0;orthogonalLoop=1;jettySize=auto;html=1;elbow=vertical;curved=0;" edge="1" parent="1">
          <mxGeometry relative="1" as="geometry">
            <mxPoint x="1020" y="630" as="sourcePoint" />
            <mxPoint x="840" y="630.29" as="targetPoint" />
          </mxGeometry>
        </mxCell>
        <mxCell id="0YgiuBvHB2j14HiR7saE-22" value="8 : fecharListaGrupos()" style="text;whiteSpace=wrap;html=1;" vertex="1" parent="1">
          <mxGeometry x="855" y="610" width="140" height="40" as="geometry" />
        </mxCell>
        <mxCell id="0YgiuBvHB2j14HiR7saE-23" value=": Grupo" style="shape=umlLifeline;perimeter=lifelinePerimeter;whiteSpace=wrap;html=1;container=0;dropTarget=0;collapsible=0;recursiveResize=0;outlineConnect=0;portConstraint=eastwest;newEdgeStyle={&quot;edgeStyle&quot;:&quot;elbowEdgeStyle&quot;,&quot;elbow&quot;:&quot;vertical&quot;,&quot;curved&quot;:0,&quot;rounded&quot;:0};" vertex="1" parent="1">
          <mxGeometry x="1310" y="420" width="130" height="380" as="geometry" />
        </mxCell>
        <mxCell id="0YgiuBvHB2j14HiR7saE-24" value="" style="html=1;points=[];perimeter=orthogonalPerimeter;outlineConnect=0;targetShapes=umlLifeline;portConstraint=eastwest;newEdgeStyle={&quot;edgeStyle&quot;:&quot;elbowEdgeStyle&quot;,&quot;elbow&quot;:&quot;vertical&quot;,&quot;curved&quot;:0,&quot;rounded&quot;:0};" vertex="1" parent="0YgiuBvHB2j14HiR7saE-23">
          <mxGeometry x="60" y="210" width="10" height="20" as="geometry" />
        </mxCell>
        <mxCell id="0YgiuBvHB2j14HiR7saE-25" style="edgeStyle=elbowEdgeStyle;rounded=0;orthogonalLoop=1;jettySize=auto;html=1;elbow=vertical;curved=0;" edge="1" parent="1" source="0YgiuBvHB2j14HiR7saE-17">
          <mxGeometry relative="1" as="geometry">
            <Array as="points">
              <mxPoint x="1885.1899999999998" y="660" />
              <mxPoint x="1915.1899999999998" y="620" />
            </Array>
            <mxPoint x="1790.0003448275859" y="660" as="sourcePoint" />
            <mxPoint x="2169.85" y="660" as="targetPoint" />
          </mxGeometry>
        </mxCell>
        <mxCell id="0YgiuBvHB2j14HiR7saE-32" value="umaBatalha:Batalha" style="shape=umlLifeline;perimeter=lifelinePerimeter;whiteSpace=wrap;html=1;container=0;dropTarget=0;collapsible=0;recursiveResize=0;outlineConnect=0;portConstraint=eastwest;newEdgeStyle={&quot;edgeStyle&quot;:&quot;elbowEdgeStyle&quot;,&quot;elbow&quot;:&quot;vertical&quot;,&quot;curved&quot;:0,&quot;rounded&quot;:0};" vertex="1" parent="1">
          <mxGeometry x="1920" y="420" width="130" height="380" as="geometry" />
        </mxCell>
        <mxCell id="0YgiuBvHB2j14HiR7saE-35" value="7 : adicionaPersonagem(batalha)" style="text;whiteSpace=wrap;html=1;" vertex="1" parent="1">
          <mxGeometry x="1790" y="680" width="210" height="20" as="geometry" />
        </mxCell>
        <mxCell id="FcAU7LM-V46JhbUVY0x0-4" value="loop (atÃ© 4x)" style="shape=umlFrame;whiteSpace=wrap;html=1;pointerEvents=0;" vertex="1" parent="1">
          <mxGeometry x="1760" y="600" width="430" height="120" as="geometry" />
        </mxCell>
        <mxCell id="FcAU7LM-V46JhbUVY0x0-6" value="Usuario" style="shape=umlActor;verticalLabelPosition=bottom;verticalAlign=top;html=1;" vertex="1" parent="1">
          <mxGeometry x="795" y="30" width="30" height="60" as="geometry" />
        </mxCell>
        <mxCell id="FcAU7LM-V46JhbUVY0x0-7" value="" style="endArrow=none;dashed=1;endFill=0;endSize=12;html=1;rounded=0;startFill=0;" edge="1" parent="1" source="FcAU7LM-V46JhbUVY0x0-6">
          <mxGeometry width="160" relative="1" as="geometry">
            <mxPoint x="810" y="120" as="sourcePoint" />
            <mxPoint x="810" y="360" as="targetPoint" />
            <Array as="points">
              <mxPoint x="810" y="230" />
            </Array>
          </mxGeometry>
        </mxCell>
        <mxCell id="FcAU7LM-V46JhbUVY0x0-8" value="" style="endArrow=open;endFill=1;endSize=12;html=1;rounded=0;" edge="1" parent="1" target="FcAU7LM-V46JhbUVY0x0-11">
          <mxGeometry width="160" relative="1" as="geometry">
            <mxPoint x="815" y="170" as="sourcePoint" />
            <mxPoint x="1005" y="170" as="targetPoint" />
          </mxGeometry>
        </mxCell>
        <mxCell id="FcAU7LM-V46JhbUVY0x0-9" value="Iniciar&amp;nbsp;&lt;span style=&quot;background-color: transparent; color: light-dark(rgb(0, 0, 0), rgb(255, 255, 255));&quot;&gt;&quot;selecionar grupo&quot;&lt;/span&gt;" style="text;whiteSpace=wrap;html=1;" vertex="1" parent="1">
          <mxGeometry x="845" y="170" width="160" height="40" as="geometry" />
        </mxCell>
        <mxCell id="FcAU7LM-V46JhbUVY0x0-10" value="Sistema" style="shape=umlLifeline;perimeter=lifelinePerimeter;whiteSpace=wrap;html=1;container=0;dropTarget=0;collapsible=0;recursiveResize=0;outlineConnect=0;portConstraint=eastwest;newEdgeStyle={&quot;edgeStyle&quot;:&quot;elbowEdgeStyle&quot;,&quot;elbow&quot;:&quot;vertical&quot;,&quot;curved&quot;:0,&quot;rounded&quot;:0};" vertex="1" parent="1">
          <mxGeometry x="975" y="50" width="100" height="310" as="geometry" />
        </mxCell>
        <mxCell id="FcAU7LM-V46JhbUVY0x0-11" value="" style="html=1;points=[];perimeter=orthogonalPerimeter;outlineConnect=0;targetShapes=umlLifeline;portConstraint=eastwest;newEdgeStyle={&quot;edgeStyle&quot;:&quot;elbowEdgeStyle&quot;,&quot;elbow&quot;:&quot;vertical&quot;,&quot;curved&quot;:0,&quot;rounded&quot;:0};" vertex="1" parent="FcAU7LM-V46JhbUVY0x0-10">
          <mxGeometry x="45" y="120" width="10" height="110" as="geometry" />
        </mxCell>
        <mxCell id="FcAU7LM-V46JhbUVY0x0-12" value="" style="html=1;verticalAlign=bottom;endArrow=open;dashed=1;endSize=8;curved=0;rounded=0;" edge="1" parent="1">
          <mxGeometry relative="1" as="geometry">
            <mxPoint x="1014.5" y="279.4999999999999" as="sourcePoint" />
            <mxPoint x="815" y="280" as="targetPoint" />
          </mxGeometry>
        </mxCell>
        <mxCell id="FcAU7LM-V46JhbUVY0x0-14" value="&amp;lt;&amp;lt; grupo selecionado &amp;gt;&amp;gt;" style="text;whiteSpace=wrap;html=1;" vertex="1" parent="1">
          <mxGeometry x="845" y="250" width="160" height="40" as="geometry" />
        </mxCell>
        <mxCell id="FcAU7LM-V46JhbUVY0x0-15" value="" style="html=1;points=[];perimeter=orthogonalPerimeter;outlineConnect=0;targetShapes=umlLifeline;portConstraint=eastwest;newEdgeStyle={&quot;edgeStyle&quot;:&quot;elbowEdgeStyle&quot;,&quot;elbow&quot;:&quot;vertical&quot;,&quot;curved&quot;:0,&quot;rounded&quot;:0};" vertex="1" parent="1">
          <mxGeometry x="805" y="160" width="10" height="130" as="geometry" />
        </mxCell>
        <mxCell id="FcAU7LM-V46JhbUVY0x0-16" value="Diagrama de InteraÃ§Ã£o" style="text;strokeColor=none;fillColor=none;html=1;fontSize=24;fontStyle=1;verticalAlign=middle;align=center;" vertex="1" parent="1">
          <mxGeometry x="780" y="-10" width="290" height="30" as="geometry" />
        </mxCell>
        <mxCell id="FcAU7LM-V46JhbUVY0x0-17" value="Diagrama de SequÃªncia" style="text;strokeColor=none;fillColor=none;html=1;fontSize=24;fontStyle=1;verticalAlign=middle;align=center;" vertex="1" parent="1">
          <mxGeometry x="780" y="370" width="290" height="30" as="geometry" />
        </mxCell>
        <mxCell id="FcAU7LM-V46JhbUVY0x0-18" value="Banco de Dados&lt;br&gt;(Repository)" style="shape=cylinder3;whiteSpace=wrap;html=1;boundedLbl=1;backgroundOutline=1;size=15;" vertex="1" parent="1">
          <mxGeometry x="2120" y="370" width="100" height="110" as="geometry" />
        </mxCell>
        <mxCell id="FcAU7LM-V46JhbUVY0x0-21" value="" style="endArrow=none;dashed=1;html=1;dashPattern=1 3;strokeWidth=2;rounded=0;entryX=0.5;entryY=1;entryDx=0;entryDy=0;entryPerimeter=0;" edge="1" parent="1" target="FcAU7LM-V46JhbUVY0x0-18">
          <mxGeometry width="50" height="50" relative="1" as="geometry">
            <mxPoint x="2170" y="800" as="sourcePoint" />
            <mxPoint x="2080" y="430" as="targetPoint" />
          </mxGeometry>
        </mxCell>
        <mxCell id="FcAU7LM-V46JhbUVY0x0-26" value="2:listarGrupos()" style="text;whiteSpace=wrap;html=1;" vertex="1" parent="1">
          <mxGeometry x="1430" y="515" width="120" height="30" as="geometry" />
        </mxCell>
        <mxCell id="FcAU7LM-V46JhbUVY0x0-27" value="" style="html=1;verticalAlign=bottom;endArrow=open;dashed=1;endSize=8;curved=0;rounded=0;" edge="1" parent="1">
          <mxGeometry relative="1" as="geometry">
            <mxPoint x="1200" y="580" as="sourcePoint" />
            <mxPoint x="1030" y="580" as="targetPoint" />
          </mxGeometry>
        </mxCell>
        <mxCell id="FcAU7LM-V46JhbUVY0x0-28" style="edgeStyle=elbowEdgeStyle;rounded=0;orthogonalLoop=1;jettySize=auto;html=1;elbow=vertical;curved=0;" edge="1" parent="1" source="0YgiuBvHB2j14HiR7saE-17" target="0YgiuBvHB2j14HiR7saE-32">
          <mxGeometry relative="1" as="geometry">
            <Array as="points">
              <mxPoint x="1910" y="700" />
              <mxPoint x="1890" y="730" />
            </Array>
          </mxGeometry>
        </mxCell>
        <mxCell id="FcAU7LM-V46JhbUVY0x0-32" value="4: grupoSelecionado(grupo)" style="text;whiteSpace=wrap;html=1;" vertex="1" parent="1">
          <mxGeometry x="1210" y="610" width="180" height="30" as="geometry" />
        </mxCell>
        <mxCell id="FcAU7LM-V46JhbUVY0x0-34" value="5: alocarPersonagens(grupo)" style="text;whiteSpace=wrap;html=1;" vertex="1" parent="1">
          <mxGeometry x="1380" y="620" width="180" height="30" as="geometry" />
        </mxCell>
        <mxCell id="FcAU7LM-V46JhbUVY0x0-45" value="5: alocarPersonagens(grupo)" style="text;whiteSpace=wrap;html=1;" vertex="1" parent="1">
          <mxGeometry x="1580" y="630" width="180" height="30" as="geometry" />
        </mxCell>
        <mxCell id="FcAU7LM-V46JhbUVY0x0-48" value="" style="html=1;verticalAlign=bottom;endArrow=open;dashed=1;endSize=8;curved=0;rounded=0;" edge="1" parent="1" target="0YgiuBvHB2j14HiR7saE-17">
          <mxGeometry relative="1" as="geometry">
            <mxPoint x="2170" y="670" as="sourcePoint" />
            <mxPoint x="1790" y="670" as="targetPoint" />
          </mxGeometry>
        </mxCell>
        <mxCell id="FcAU7LM-V46JhbUVY0x0-49" value=": Personagem" style="shape=umlLifeline;perimeter=lifelinePerimeter;whiteSpace=wrap;html=1;container=0;dropTarget=0;collapsible=0;recursiveResize=0;outlineConnect=0;portConstraint=eastwest;newEdgeStyle={&quot;edgeStyle&quot;:&quot;elbowEdgeStyle&quot;,&quot;elbow&quot;:&quot;vertical&quot;,&quot;curved&quot;:0,&quot;rounded&quot;:0};" vertex="1" parent="1">
          <mxGeometry x="1500" y="420" width="140" height="380" as="geometry" />
        </mxCell>
        <mxCell id="FcAU7LM-V46JhbUVY0x0-51" value="" style="html=1;points=[];perimeter=orthogonalPerimeter;outlineConnect=0;targetShapes=umlLifeline;portConstraint=eastwest;newEdgeStyle={&quot;edgeStyle&quot;:&quot;elbowEdgeStyle&quot;,&quot;elbow&quot;:&quot;vertical&quot;,&quot;curved&quot;:0,&quot;rounded&quot;:0};" vertex="1" parent="FcAU7LM-V46JhbUVY0x0-49">
          <mxGeometry x="65" y="220" width="10" height="20" as="geometry" />
        </mxCell>
        <mxCell id="FcAU7LM-V46JhbUVY0x0-58" style="edgeStyle=elbowEdgeStyle;rounded=0;orthogonalLoop=1;jettySize=auto;html=1;elbow=vertical;curved=0;" edge="1" parent="1" target="FcAU7LM-V46JhbUVY0x0-51">
          <mxGeometry relative="1" as="geometry">
            <mxPoint x="1380.5" y="644.5866666666678" as="sourcePoint" />
            <mxPoint x="1560" y="645" as="targetPoint" />
          </mxGeometry>
        </mxCell>
        <mxCell id="FcAU7LM-V46JhbUVY0x0-60" value="6:buscarPersonagem(id)" style="text;whiteSpace=wrap;html=1;" vertex="1" parent="1">
          <mxGeometry x="1810" y="635" width="190" height="20" as="geometry" />
        </mxCell>
        <mxCell id="FcAU7LM-V46JhbUVY0x0-61" value="" style="edgeStyle=elbowEdgeStyle;rounded=0;orthogonalLoop=1;jettySize=auto;html=1;elbow=vertical;curved=0;" edge="1" parent="1" source="FcAU7LM-V46JhbUVY0x0-51" target="0YgiuBvHB2j14HiR7saE-17">
          <mxGeometry relative="1" as="geometry">
            <mxPoint x="1575" y="650" as="sourcePoint" />
            <mxPoint x="1775" y="650" as="targetPoint" />
            <Array as="points" />
          </mxGeometry>
        </mxCell>
        <mxCell id="0YgiuBvHB2j14HiR7saE-17" value="" style="html=1;points=[];perimeter=orthogonalPerimeter;outlineConnect=0;targetShapes=umlLifeline;portConstraint=eastwest;newEdgeStyle={&quot;edgeStyle&quot;:&quot;elbowEdgeStyle&quot;,&quot;elbow&quot;:&quot;vertical&quot;,&quot;curved&quot;:0,&quot;rounded&quot;:0};" vertex="1" parent="1">
          <mxGeometry x="1770" y="650" width="10" height="50" as="geometry" />
        </mxCell>
        <mxCell id="FcAU7LM-V46JhbUVY0x0-23" style="edgeStyle=elbowEdgeStyle;rounded=0;orthogonalLoop=1;jettySize=auto;html=1;elbow=vertical;curved=0;" edge="1" parent="1" source="0YgiuBvHB2j14HiR7saE-6" target="0YgiuBvHB2j14HiR7saE-32">
          <mxGeometry relative="1" as="geometry">
            <mxPoint x="1960" y="540" as="targetPoint" />
            <Array as="points">
              <mxPoint x="1700" y="540" />
            </Array>
          </mxGeometry>
        </mxCell>
      </root>
    </mxGraphModel>
  </diagram>
</mxfile>
